# xmcd
#
# Track frame offsets:
#   150
#   15785
#   28735
#   43517
#   61775
#   76305
#   89915
#   105472
#   120545
#   133932
#   148642
#   169522
#   182722
#   194660
#
# Disc length: 2802 seconds
#
# Revision: 0
# Processed by: cddbd v1.5.1PL0 Copyright (c) Steve Scherf et al.
# Submitted via: uFREEDB ActiveX Control 1.5
#
DISCID=b80af00e
DTITLE=Viola minha Viola - Viola minha Viola Vol.1
DYEAR=1900
DGENRE=Country
TTITLE0=Marvada Pinga - Inezita Barroso
TTITLE1=Pagode em Brasília - Tião Carreiro and Pardinho
TTITLE2=Chico Mineiro - Tonico and Tinoco
TTITLE3=Museu de Cristo - Pedro Bento and Zé da Estrada
TTITLE4=O Ipê e o Prisioneiro (Ipê Florifo) - Liu and Léo
TTITLE5=A Enxada e a Caneta - Zico and Zeca
TTITLE6=Colcha de Retalhos - As Galvão
TTITLE7=Telefone Mudo - Trio Parada Dura
TTITLE8=Amargurado - Dino Franco and Irmãs Franco
TTITLE9=O Menino da Porteira - Sérgio Reis and Filhos
TTITLE10=Avenida Boiadeira - Nalva Aguiar
TTITLE11=O Selo de Sangue - Abel and Caim
TTITLE12=Cadeira Vazia - João Mulato and Douradinho
TTITLE13=Sertanejo - Peão Carreiro and Praense
EXTD=
EXTT0=
EXTT1=
EXTT2=
EXTT3=
EXTT4=
EXTT5=
EXTT6=
EXTT7=
EXTT8=
EXTT9=
EXTT10=
EXTT11=
EXTT12=
EXTT13=
PLAYORDER=
